# AST/ASF file generated using VICON BodyLanguage
# -----------------------------------------------
:version 1.10
:name VICON
:units
  mass 1.0
  length 0.45
  angle deg
:documentation
   .ast/.asf automatically generated from VICON data using
   VICON BodyBuilder and BodyLanguage model FoxedUp or BRILLIANT.MOD
:root
   order TX TY TZ RX RY RZ
   axis XYZ
   position 0 0 0  
   orientation 0 0 0 
:bonedata
  begin
     id 1 
     name lhipjoint
     direction 0.61886 -0.69539 0.365302 
     length 2.20474 
     axis 0 0 0  XYZ
  end
  begin
     id 2 
     name lfemur
     direction 0.34202 -0.939693 0  
     length 6.65149  
     axis 0 0 20  XYZ
    dof rx ry rz
    limits (-160.0 20.0)
           (-70.0 70.0)
           (-60.0 70.0)
  end
  begin
     id 3 
     name ltibia
     direction 0.34202 -0.939693 0   
     length 6.35814   
     axis 0 0 20   XYZ
    dof rx
    limits (-10.0 170.0)
  end
  begin
     id 4 
     name lfoot
     direction 0.101224 -0.278109 0.955201   
     length 2.18766   
     axis -90 7.62852e-016 20   XYZ
    dof rx rz
    limits (-45.0 90.0)
           (-70.0 20.0)
  end
  begin
     id 5 
     name ltoes
     direction 1.53524e-011 -4.21877e-011 1   
     length 1.09206   
     axis -90 7.62852e-016 20   XYZ
    dof rx
    limits (-90.0 20.0)
  end
  begin
     id 6 
     name rhipjoint
     direction -0.600207 -0.708087 0.371972   
     length 2.1652  
     axis 0 0 0  XYZ 
  end
  begin
     id 7 
     name rfemur
     direction -0.34202 -0.939693 0   
     length 6.54691   
     axis 0 0 -20   XYZ
    dof rx ry rz
    limits (-160.0 20.0)
           (-70.0 70.0)
           (-70.0 60.0)
  end
  begin
     id 8 
     name rtibia
     direction -0.34202 -0.939693 0   
     length 6.37474   
     axis 0 0 -20   XYZ
    dof rx
    limits (-10.0 170.0)
 end
 begin
     id 9 
     name rfoot
     direction -0.111266 -0.3057 0.945604   
     length 2.00903  
     axis -90 -7.62852e-016 -20   XYZ
    dof rx rz
    limits (-45.0 90.0)
           (-20.0 70.0)
  end
  begin
     id 10 
     name rtoes
     direction -1.5362e-011 -4.21913e-011 1   
     length 1.00221   
     axis -90 -7.62852e-016 -20   XYZ
    dof rx
    limits (-90.0 20.0)
  end
  begin
     id 11 
     name lowerback
     direction -0.0224561 0.999731 -0.00577314   
     length 2.10409   
     axis 0 0 0   XYZ
    dof rx ry rz
    limits (-20.0 45.0)
           (-30.0 30.0)
           (-30.0 30.0)
  end
  begin
     id 12 
     name upperback
     direction 0.0213126 0.999185 -0.0342817   
     length 2.09783   
     axis 0 0 0   XYZ
    dof rx ry rz
    limits (-20.0 45.0)
           (-30.0 30.0)
           (-30.0 30.0)
  end
  begin
     id 13 
     name thorax
     direction 0.0312356 0.999036 -0.0308451   
     length 2.09788   
     axis 0 0 0   XYZ
    dof rx ry rz
    limits (-20.0 45.0)
           (-30.0 30.0)
           (-30.0 30.0)
  end
  begin
     id 14 
     name lowerneck
     direction -0.0114419 0.996481 0.0830329   
     length 1.38575   
     axis 0 0 0   XYZ
    dof rx ry rz
    limits (-20.0 45.0)
           (-30.0 30.0)
           (-30.0 30.0)
  end
  begin
     id 15 
     name upperneck
     direction -0.0075675 0.996187 -0.0869092   
     length 1.39401   
     axis 0 0 0   XYZ
    dof rx ry rz
    limits (-20.0 45.0)
           (-30.0 30.0)
           (-30.0 30.0)
  end
  begin
     id 16
     name head
     direction -0.00222073 0.999264 -0.0382974  
     length 1.3964  
     axis 0 0 0   XYZ
    dof rx ry rz
    limits (-20.0 45.0)
           (-30.0 30.0)
           (-30.0 30.0)
  end
  begin
     id 17 
     name lclavicle
     direction 0.965962 0.222138 0.132556  
     length 2.81514  
     axis 0 0 0   XYZ
    dof ry rz
    limits (-20.0 10.0)
           (0.0 20.0)
  end
  begin
     id 18 
     name lhumerus
     direction 1 -4.48972e-011 7.03471e-018   
     length 4.47366   
     axis 180 -30 -90   XYZ
    dof rx ry rz
    limits (-60.0 90.0)
           (-90.0 90.0)
           (-90.0 90.0)
  end
  begin
     id 19
     name lradius
     direction 1 -4.48951e-011 -6.22192e-028   
     length 3.19948   
     axis 180 -30 -90   XYZ
    dof rx
    limits (-10.0 170.0)
  end
  begin
     id 20
     name lwrist
     direction 1 -4.48967e-011 -1.24264e-027   
     length 1.59974   
     axis 1.40095e-015 90 90   XYZ
    dof ry
    limits (-180.0 0.0)
 end
  begin
     id 21 
     name lhand
     direction 1 -4.4897e-011 -2.48528e-027   
     length 0.492667   
     axis 1.58582e-015 90 90   XYZ
    dof rx rz
    limits (-90.0 90.0)
           (-45.0 45.0)
  end
  begin
     id 22 
     name lfingers
     direction 1 -4.48996e-011 -4.97056e-027   
     length 0.397201   
     axis 3.17164e-015 90 90   XYZ
    dof rx
    limits (0.0 90.0)
  end
  begin
     id 23
     name lthumb
     direction 0.707107 -6.34981e-011 0.707107   
     length 0.570303   
     axis -90 45 2.85299e-015   XYZ
    dof rx rz
    limits (-45.0 45.0)
           (-45.0 45.0)
  end
  begin
     id 24 
     name rclavicle
     direction -0.961164 0.229034 0.153972   
     length 3.09348  
     axis 0 0 0   XYZ 
    dof ry rz
    limits (-10.0 20.0)
           (-20.0 0.0)
  end
  begin
     id 25 
     name rhumerus
     direction -1 -4.48971e-011 -9.06263e-028  
     length 4.3269   
     axis 180 30 90   XYZ
    dof rx ry rz
    limits (-90.0 60.0)
           (-90.0 90.0)
           (-90.0 90.0)
  end
  begin
     id 26 
     name rradius
     direction -1 -4.48953e-011 1.44659e-027   
     length 3.1896   
     axis 180 30 90   XYZ
    dof rx
    limits (-10.0 170.0)
  end
  begin
     id 27 
     name rwrist
     direction -1 -4.48988e-011 -1.24264e-027   
     length 1.5948   
     axis 1.40095e-015 -90 -90   XYZ
    dof ry
    limits (-180.0 0.0)
  end
  begin
     id 28
     name rhand
     direction -1 -4.49033e-011 -2.48528e-027   
     length 0.464496   
     axis 1.58582e-015 -90 -90   XYZ
    dof rx rz
    limits (-90.0 90.0)
           (-45.0 45.0)
  end
  begin
     id 29
     name rfingers
     direction -1 -4.48905e-011 -4.97056e-027   
     length 0.374489   
     axis 3.17164e-015 -90 -90   XYZ
    dof rx
    limits (0.0 90.0)
  end
  begin
     id 30
     name rthumb
     direction -0.707107 -6.34909e-011 0.707107   
     length 0.537693   
     axis -90 -45 -2.85299e-015   XYZ
    dof rx rz
    limits (-45.0 45.0)
           (-45.0 45.0)
  end
:hierarchy
  begin
    root lhipjoint rhipjoint lowerback
    lhipjoint lfemur
    lfemur ltibia
    ltibia lfoot
    lfoot ltoes
    rhipjoint rfemur
    rfemur rtibia
    rtibia rfoot
    rfoot rtoes
    lowerback upperback
    upperback thorax
    thorax lowerneck lclavicle rclavicle
    lowerneck upperneck
    upperneck head
    lclavicle lhumerus
    lhumerus lradius
    lradius lwrist
    lwrist lhand lthumb
    lhand lfingers
    rclavicle rhumerus
    rhumerus rradius
    rradius rwrist
    rwrist rhand rthumb
    rhand rfingers
  end

#!OML:ASF G:\acrobat\cartwheel_test 2\Patient 1\Session 2\acrobat4.ASF
:FULLY-SPECIFIED
:DEGREES
95
root 8.1805 14.6677 2.45967 -6.9563 -2.31636 2.30384
lowerback -1.09094 0.00744633 -3.29579
upperback 3.48579 0.0611893 1.5239
thorax 4.20726 -0.109312 3.42902
lowerneck -13.2345 -1.5259 -1.06249
upperneck 11.3018 -1.70757 -1.06712
head 5.58038 -0.958824 -0.310047
rclavicle 2.25186e-015 3.26007e-014
rhumerus 51.6582 -13.4003 -83.333
rradius 14.0342
rwrist 53.3933
rhand -20.4679 -17.2388
rfingers 7.12502
rthumb 5.8881 -47.137
lclavicle 2.25186e-015 3.26007e-014
lhumerus 41.1762 -11.8111 40.2046
lradius 28.6145
lwrist 8.19047
lhand -26.5527 1.11225
lfingers 7.12502
lthumb 0.0119067 31.092
rfemur -12.2939 -2.67212 17.3932
rtibia 49.551
rfoot -22.5939 -17.6478
rtoes -14.5526
lfemur -12.5728 6.95553 -17.9402
ltibia 50.2943
lfoot -26.2841 8.67218
ltoes -14.6518
96
root 8.18643 14.6674 2.45865 -6.94823 -2.31389 2.31449
lowerback -0.993478 -0.00431 -3.27991
upperback 3.48137 0.04188 1.52741
thorax 4.14884 -0.11723 3.42237
lowerneck -13.3854 -1.50585 -1.0849
upperneck 11.2504 -1.67033 -1.0939
head 5.58945 -0.943644 -0.312645
rclavicle 1.2921e-015 -1.59028e-014
rhumerus 49.2542 -7.20569 -73.1016
rradius 15.6725
rwrist 41.6158
rhand -20.3814 -19.5315
rfingers 7.12502
rthumb 5.97159 -49.4273
lclavicle 1.2921e-015 -1.59028e-014
lhumerus 41.1272 -11.6566 40.3598
lradius 28.5468
lwrist 8.11613
lhand -26.6605 1.23721
lfingers 7.12502
lthumb -0.0921977 31.2169
rfemur -12.3133 -2.62189 17.3704
rtibia 49.6028
rfoot -22.6362 -17.6383
rtoes -14.585
lfemur -12.5666 6.9308 -17.9974
ltibia 50.2864
lfoot -26.2558 8.77792
ltoes -14.6982
97
root 8.19053 14.6662 2.45709 -6.90555 -2.29863 2.2473
lowerback -0.961965 -0.00183088 -3.22392
upperback 3.50323 0.0416242 1.55487
thorax 4.15357 -0.116443 3.4193
lowerneck -13.4475 -1.51868 -1.12073
upperneck 11.0127 -1.68629 -1.06019
head 5.52565 -0.949227 -0.296712
rclavicle 4.73667e-015 -4.77083e-015
rhumerus 48.2617 -3.1017 -66.5335
rradius 16.8036
rwrist 33.8491
rhand -20.5152 -20.7359
rfingers 7.12502
rthumb 5.84241 -50.6354
lclavicle 4.73667e-015 -4.77083e-015
lhumerus 41.1748 -11.4382 40.5867
lradius 28.4595
lwrist 7.9611
lhand -26.6447 1.15032
lfingers 7.12502
lthumb -0.076885 31.13
rfemur -12.355 -2.60051 17.4483
rtibia 49.6505
rfoot -22.3219 -17.6876
rtoes -14.9361
lfemur -12.6453 6.88156 -17.9685
ltibia 50.3265
lfoot -26.2311 8.88999
ltoes -14.7765
98
root 8.19345 14.6639 2.45383 -6.86421 -2.26748 2.1538
lowerback -0.937234 -0.0211701 -3.15462
upperback 3.542 0.0114323 1.59872
thorax 4.18227 -0.131193 3.42455
lowerneck -13.5249 -1.51112 -1.18216
upperneck 10.8183 -1.66885 -1.0279
head 5.47829 -0.939956 -0.274634
rclavicle -2.66428e-015 7.15625e-015
rhumerus 47.8217 -1.4375 -63.8821
rradius 17.5342
rwrist 30.5524
rhand -20.5747 -21.3421
rfingers 7.12502
rthumb 5.78496 -51.2432
lclavicle -2.66428e-015 7.15625e-015
lhumerus 41.2148 -11.1736 40.7805
lradius 28.3844
lwrist 7.87509
lhand -26.5393 0.980533
lfingers 7.12502
lthumb 0.0248511 30.9603
rfemur -12.3998 -2.60301 17.5572
rtibia 49.677
rfoot -21.9522 -17.7795
rtoes -15.3162
lfemur -12.7479 6.83129 -17.8941
ltibia 50.3973
lfoot -26.2563 8.90597
ltoes -14.7908
99
root 8.19711 14.6622 2.45027 -6.85918 -2.22506 2.03977
lowerback -0.876201 -0.0316805 -3.04603
upperback 3.5688 -0.00909195 1.6406
thorax 4.17679 -0.138865 3.4058
lowerneck -13.6702 -1.45016 -1.08673
upperneck 10.8451 -1.58551 -1.15163
head 5.50907 -0.904936 -0.323184
rclavicle 1.09215e-014 -2.38542e-015
rhumerus 46.8706 1.47117 -59.2645
rradius 19.0431
rwrist 24.9465
rhand -20.7559 -22.5199
rfingers 7.12502
rthumb 5.61001 -52.4256
lclavicle 1.09215e-014 -2.38542e-015
lhumerus 41.273 -11.0665 40.8455
lradius 28.3468
lwrist 7.94361
lhand -26.4986 1.15437
lfingers 7.12502
lthumb 0.0641366 31.1341
rfemur -12.3972 -2.58063 17.6834
rtibia 49.6745
rfoot -21.9142 -17.8806
rtoes -15.4448
lfemur -12.8037 6.76623 -17.7935
ltibia 50.4575
lfoot -26.2947 8.87218
ltoes -14.6578
100
root 8.20292 14.6635 2.44808 -6.86202 -2.18453 1.99771
lowerback -0.811818 -0.0309664 -3.00822
upperback 3.57558 -0.012298 1.67849
thorax 4.14751 -0.139449 3.42353
lowerneck -13.7744 -1.40303 -0.997644
upperneck 10.8922 -1.51841 -1.28851
head 5.53951 -0.879232 -0.375999
rclavicle 1.93737e-014 0
rhumerus 48.8309 -5.87282 -70.5105
rradius 16.4178
rwrist 38.1516
rhand -20.8461 -20.4916
rfingers 7.12502
rthumb 5.52294 -50.3996
lclavicle 1.93737e-014 0
lhumerus 41.3149 -11.0461 40.9022
lradius 28.3193
lwrist 8.04957
lhand -26.5736 1.39285
lfingers 7.12502
lthumb -0.00822392 31.3726
rfemur -12.3754 -2.56196 17.7135
rtibia 49.6603
rfoot -21.9166 -17.9477
rtoes -15.6394
lfemur -12.8302 6.70431 -17.7888
ltibia 50.4833
lfoot -26.2923 8.8993
ltoes -14.5519
101
root 8.20899 14.6674 2.44623 -6.86194 -2.15368 2.00801
lowerback -0.725846 -0.0451072 -3.02534
upperback 3.55648 -0.0341657 1.71241
thorax 4.08085 -0.150008 3.46713
lowerneck -13.9808 -1.42912 -1.01137
upperneck 11.0726 -1.53336 -1.37615
head 5.63018 -0.895355 -0.405552
rclavicle 7.4653e-015 1.66979e-014
rhumerus 49.512 -7.81427 -73.5366
rradius 15.8172
rwrist 41.7606
rhand -20.8443 -20.0328
rfingers 7.12502
rthumb 5.52465 -49.9408
lclavicle 7.4653e-015 1.66979e-014
lhumerus 41.2347 -10.9881 41.0524
lradius 28.3117
lwrist 8.04376
lhand -26.67 1.41427
lfingers 7.12502
lthumb -0.101349 31.394
rfemur -12.382 -2.55484 17.675
rtibia 49.643
rfoot -21.9082 -17.8869
rtoes -15.412
lfemur -12.8336 6.64689 -17.8483
ltibia 50.4681
lfoot -26.275 8.99854
ltoes -14.6961
102
root 8.21432 14.6695 2.44436 -6.83932 -2.12746 2.0306
lowerback -0.695377 -0.0492142 -3.05707
upperback 3.56554 -0.0400855 1.72885
thorax 4.07379 -0.154342 3.50185
lowerneck -14.2779 -1.45946 -1.00938
upperneck 11.2949 -1.55906 -1.4333
head 5.74931 -0.914346 -0.430198
rclavicle -1.36742e-014 -1.59028e-015
rhumerus 48.589 -4.72363 -68.5412
rradius 16.7371
rwrist 35.9464
rhand -20.5375 -20.8648
rfingers 7.12502
rthumb 5.82091 -50.7648
lclavicle -1.36742e-014 -1.59028e-015
lhumerus 41.184 -10.9623 41.1074
lradius 28.3758
lwrist 8.10072
lhand -26.7722 1.51633
lfingers 7.12502
lthumb -0.200035 31.496
rfemur -12.422 -2.55836 17.6297
rtibia 49.6406
rfoot -21.8749 -17.8264
rtoes -15.1209
lfemur -12.8671 6.56829 -17.9235
ltibia 50.4402
lfoot -26.2504 9.09044
ltoes -14.8144
103
root 8.22026 14.6711 2.44313 -6.78872 -2.12923 2.065
lowerback -0.734131 -0.0292802 -3.06628
upperback 3.60427 -0.0115926 1.71625
thorax 4.13379 -0.141969 3.4955
lowerneck -14.5373 -1.46023 -0.976024
upperneck 11.4099 -1.5618 -1.42946
head 5.82865 -0.915281 -0.43765
rclavicle -1.05511e-014 0
rhumerus 48.2345 -3.09125 -65.8874
rradius 17.2861
rwrist 32.6306
rhand -20.4903 -21.3288
rfingers 7.12502
rthumb 5.86649 -51.2276
lclavicle -1.05511e-014 0
lhumerus 41.2557 -10.974 41.0517
lradius 28.4236
lwrist 8.23693
lhand -26.9097 1.52048
lfingers 7.12502
lthumb -0.332876 31.5
rfemur -12.499 -2.54094 17.5702
rtibia 49.6457
rfoot -21.7351 -17.7724
rtoes -14.9623
lfemur -12.926 6.51131 -18.0169
ltibia 50.4194
lfoot -26.2073 9.17672
ltoes -14.6799
104
root 8.22484 14.6727 2.44215 -6.7572 -2.16436 2.06192
lowerback -0.724772 -0.00632131 -3.03556
upperback 3.59231 0.018381 1.70461
thorax 4.11325 -0.125158 3.46721
lowerneck -14.6158 -1.46099 -0.935101
upperneck 11.4737 -1.57288 -1.40501
head 5.86171 -0.917488 -0.438647
rclavicle 6.83943e-015 -1.98785e-014
rhumerus 48.2334 -3.21908 -66.0818
rradius 17.211
rwrist 32.5739
rhand -20.7755 -21.5073
rfingers 7.12502
rthumb 5.59112 -51.4136
lclavicle 6.83943e-015 -1.98785e-014
lhumerus 41.2704 -11.0061 41.0556
lradius 28.4247
lwrist 8.2583
lhand -26.9857 1.35668
lfingers 7.12502
lthumb -0.406261 31.336
rfemur -12.555 -2.43649 17.5709
rtibia 49.6526
rfoot -21.5545 -17.7631
rtoes -14.8599
lfemur -12.9536 6.50376 -18.0482
ltibia 50.419
lfoot -26.1836 9.24884
ltoes -14.54
105
root 8.22731 14.6723 2.44092 -6.73844 -2.2227 1.99204
lowerback -0.689203 -0.0153261 -3.00393
upperback 3.56304 0.00253615 1.75791
thorax 4.06389 -0.131618 3.50382
lowerneck -14.5489 -1.43812 -0.982636
upperneck 11.415 -1.54172 -1.35069
head 5.83289 -0.899661 -0.409925
rclavicle 1.10885e-015 -8.74653e-015
rhumerus 48.0076 -2.73572 -65.3748
rradius 17.4791
rwrist 31.808
rhand -20.4304 -21.6465
rfingers 7.12502
rthumb 5.92434 -51.5437
lclavicle 1.10885e-015 -8.74653e-015
lhumerus 41.145 -10.9274 41.1645
lradius 28.4315
lwrist 8.14098
lhand -26.875 1.33103
lfingers 7.12502
lthumb -0.299388 31.3106
rfemur -12.5832 -2.29712 17.6658
rtibia 49.6388
rfoot -21.601 -17.8509
rtoes -14.8193
lfemur -12.9709 6.5248 -17.9774
ltibia 50.4261
lfoot -26.2023 9.25399
ltoes -14.4816
106
root 8.23232 14.6721 2.43896 -6.68837 -2.29411 1.92894
lowerback -0.6848 -0.0234869 -2.94162
upperback 3.54059 -0.0119936 1.8052
thorax 4.03904 -0.136875 3.51707
lowerneck -14.5115 -1.42241 -0.997165
upperneck 11.3446 -1.51968 -1.34509
head 5.80462 -0.888645 -0.403026
rclavicle -4.30804e-015 1.59028e-014
rhumerus 47.4155 -1.41826 -63.3429
rradius 18.237
rwrist 29.4413
rhand -20.1592 -21.9275
rfingers 7.12502
rthumb 6.18615 -51.8171
lclavicle -4.30804e-015 1.59028e-014
lhumerus 41.0561 -10.8453 41.2523
lradius 28.4284
lwrist 8.02892
lhand -26.736 1.33584
lfingers 7.12502
lthumb -0.165066 31.3155
rfemur -12.662 -2.21889 17.7324
rtibia 49.6191
rfoot -21.7101 -17.8531
rtoes -14.6362
lfemur -13.0221 6.53875 -17.9312
ltibia 50.4339
lfoot -26.2259 9.259
ltoes -14.2966
107
root 8.23942 14.6745 2.43619 -6.67142 -2.35723 1.94281
lowerback -0.596017 -0.0186549 -2.897
upperback 3.479 -0.00830648 1.78653
thorax 3.92383 -0.130093 3.47191
lowerneck -14.4238 -1.41605 -0.914114
upperneck 11.3375 -1.52704 -1.36421
head 5.78682 -0.889807 -0.42239
rclavicle -5.3206e-015 -9.54166e-015
rhumerus 47.8872 -2.53334 -65.1769
rradius 17.5763
rwrist 31.2999
rhand -20.6772 -21.7781
rfingers 7.12502
rthumb 5.68601 -51.6818
lclavicle -5.3206e-015 -9.54166e-015
lhumerus 40.9522 -10.9612 41.1381
lradius 28.4842
lwrist 8.0772
lhand -26.7719 1.30734
lfingers 7.12502
lthumb -0.199737 31.287
rfemur -12.7369 -2.13862 17.6936
rtibia 49.5965
rfoot -21.9377 -17.8007
rtoes -14.1821
lfemur -13.0401 6.53475 -17.9844
ltibia 50.4382
lfoot -26.2297 9.27452
ltoes -14.0426
108
root 8.24595 14.6758 2.43279 -6.68642 -2.34851 1.94775
lowerback -0.477916 -0.0456848 -2.85871
upperback 3.44159 -0.0474872 1.76254
thorax 3.8208 -0.145508 3.42326
lowerneck -14.3712 -1.38587 -0.84052
upperneck 11.3168 -1.50531 -1.34436
head 5.77107 -0.874199 -0.42547
rclavicle 3.65577e-015 -4.77083e-015
rhumerus 48.044 -2.85847 -65.8188
rradius 17.362
rwrist 31.7535
rhand -20.8773 -21.644
rfingers 7.12502
rthumb 5.49282 -51.5528
lclavicle 3.65577e-015 -4.77083e-015
lhumerus 40.8223 -11.0783 40.9282
lradius 28.5896
lwrist 8.15434
lhand -26.9016 1.36822
lfingers 7.12502
lthumb -0.325084 31.3477
rfemur -12.7294 -2.12738 17.6557
rtibia 49.6003
rfoot -21.9515 -17.753
rtoes -14.1728
lfemur -13.0517 6.47147 -18.0316
ltibia 50.452
lfoot -26.2228 9.30303
ltoes -13.9807
109
root 8.25171 14.6743 2.42891 -6.6748 -2.32197 1.92308
lowerback -0.414647 -0.0735413 -2.79156
upperback 3.43698 -0.0876101 1.75369
thorax 3.7829 -0.162506 3.37447
lowerneck -14.3946 -1.35429 -0.806442
upperneck 11.2998 -1.47314 -1.31911
head 5.76958 -0.855039 -0.420171
rclavicle 2.71155e-015 -9.54166e-015
rhumerus 48.0639 -2.83403 -65.8166
rradius 17.3761
rwrist 31.562
rhand -20.2559 -21.2773
rfingers 7.12502
rthumb 6.09276 -51.1697
lclavicle 2.71155e-015 -9.54166e-015
lhumerus 40.7607 -11.1164 40.7963
lradius 28.6564
lwrist 8.18391
lhand -26.942 1.46143
lfingers 7.12502
lthumb -0.364107 31.4409
rfemur -12.734 -2.17624 17.6559
rtibia 49.6399
rfoot -21.7722 -17.773
rtoes -14.7134
lfemur -13.104 6.41584 -18.0457
ltibia 50.4807
lfoot -26.2399 9.37168
ltoes -13.9982
